<svg width="11" height="12" viewBox="0 0 11 12" fill="none" xmlns="http://www.w3.org/2000/svg">
<circle cx="5.653" cy="5.80168" r="5.31792" fill="#EBF5FF"/>
<path d="M5.57206 3.49791C5.75089 3.49791 5.8914 3.54262 5.99358 3.63203C6.10003 3.71719 6.15325 3.83641 6.15325 3.98969C6.15325 4.14297 6.10003 4.26432 5.99358 4.35373C5.8914 4.43889 5.75089 4.48147 5.57206 4.48147C5.39323 4.48147 5.25059 4.43889 5.14415 4.35373C5.04196 4.26432 4.99087 4.14297 4.99087 3.98969C4.99087 3.83641 5.04196 3.71719 5.14415 3.63203C5.25059 3.54262 5.39323 3.49791 5.57206 3.49791ZM6.07022 5.07543V7.85367C6.07022 8.03249 6.10003 8.15384 6.15964 8.21771C6.22351 8.28158 6.32995 8.31351 6.47898 8.31351V8.44763C6.40233 8.44337 6.28312 8.43912 6.12132 8.43486C5.95952 8.42634 5.79559 8.42208 5.62954 8.42208C5.46348 8.42208 5.2953 8.42634 5.12499 8.43486C4.95467 8.43912 4.82694 8.44337 4.74178 8.44763V8.31351C4.89081 8.31351 4.99512 8.28158 5.05473 8.21771C5.1186 8.15384 5.15053 8.03249 5.15053 7.85367V5.84184C5.15053 5.65024 5.12073 5.50973 5.06112 5.42032C5.00577 5.32665 4.89932 5.27981 4.74178 5.27981V5.14569C4.87803 5.15846 5.01003 5.16485 5.13776 5.16485C5.31659 5.16485 5.48264 5.15846 5.63593 5.14569C5.79347 5.12866 5.93823 5.10524 6.07022 5.07543Z" fill="#137BDE"/>
</svg>
